<?xml version="1.0" standalone="no"?><!DOCTYPE svg PUBLIC "-//W3C//DTD SVG 1.1//EN" "http://www.w3.org/Graphics/SVG/1.1/DTD/svg11.dtd"><svg width="200" height="200" viewBox="0 0 200 200" version="1.1" xmlns="http://www.w3.org/2000/svg" xmlns:xlink="http://www.w3.org/1999/xlink"><defs><style type="text/css"><![CDATA[
@font-face { font-family: ifont; src: url("//at.alicdn.com/t/font_1442373896_4754455.eot?#iefix") format("embedded-opentype"), url("//at.alicdn.com/t/font_1442373896_4754455.woff") format("woff"), url("//at.alicdn.com/t/font_1442373896_4754455.ttf") format("truetype"), url("//at.alicdn.com/t/font_1442373896_4754455.svg#ifont") format("svg"); }

]]></style></defs><g class="transform-group"><g transform="scale(0.1953125, 0.1953125)"><path d="M551.096182 25.49751c-0.499951-0.599941-22.897764-25.49751-50.495069-25.49751l-2.399766 0c-27.597305 0-49.795137 24.897569-50.395079 25.49751-130.087296 149.485402-319.968753 396.061322-319.968753 607.840641 0 211.779318 138.686456 390.561859 380.262865 390.561859 209.879504 0 387.662142-178.782541 387.662142-390.561859C895.662533 411.659799 689.682648 184.881945 551.096182 25.49751zM508.000391 959.906259c-218.478664 0-316.269114-163.983986-316.269114-326.568109 0-143.186017 102.09003-333.267454 303.470364-564.94483 1.099893-1.099893 2.799727-2.399766 4.19959-3.399668 1.499854 0.999902 3.099697 2.299775 4.19959 3.399668l16.79836 19.298115c131.387169 150.685285 311.269603 357.165121 311.269603 545.746704C831.668782 810.420857 683.483254 959.906259 508.000391 959.906259zM708.780783 582.24314c-11.198906-7.799238-60.594083-45.895518-159.984377 68.793282-98.290401 113.488917-60.094131 162.684113-48.295284 176.082804 19.198125 21.697881 125.387755 68.393321 208.27966-27.697295C803.571526 689.532663 720.37965 590.242359 708.780783 582.24314zM681.683429 774.924324c-57.094424 67.99336-131.987111 36.996387-146.985646 21.997852-8.899131-8.899131-28.397227-41.995899 40.995996-120.988185 78.992286-89.991212 103.389903-57.794356 111.089151-52.294893C694.78215 629.338541 746.977053 697.131921 681.683429 774.924324z" fill="#272636"></path></g></g></svg>